<?xml version="1.0" standalone="no"?><!DOCTYPE svg PUBLIC "-//W3C//DTD SVG 1.1//EN" "http://www.w3.org/Graphics/SVG/1.1/DTD/svg11.dtd"><svg t="1527488812825" class="icon" style="" viewBox="0 0 1024 1024" version="1.1" xmlns="http://www.w3.org/2000/svg" p-id="3593" xmlns:xlink="http://www.w3.org/1999/xlink" width="48" height="48"><defs><style type="text/css"></style></defs><path d="M488.349227 845.10979a1733.214038 1733.214038 0 0 0-36.340552-41.65088C337.036891 671.916346 181.757804 500.514338 181.757804 339.349105 181.693824 152.272034 333.390039 0 520.211191 0c186.629212 0 338.325427 152.080095 338.325427 339.157165 0 164.556165-163.532487 338.389407-280.935505 471.339529a6371.113099 6371.113099 0 0 0-30.326447 34.549117 39.155666 39.155666 0 0 1-58.989419 0z m155.471027-517.852876c0-71.209569-58.22166-129.11133-129.751128-129.11133a129.559189 129.559189 0 0 0-129.815109 129.11133c0 71.209569 58.22166 129.11133 129.815109 129.11133a129.559189 129.559189 0 0 0 129.751128-129.11133z" p-id="3594" fill="#176ebd"></path><path d="M891.742159 692.261937a25.847858 25.847858 0 0 0-23.608564-15.355163h-95.969769a25.783878 25.783878 0 0 0-25.783878 25.719899c0 14.075566 11.580352 25.591939 25.783878 25.591938h15.611082l80.358687 195.330471H169.345713l80.166748-195.266491h3.198992c14.203526 0 25.783878-11.516372 25.783878-25.655918a25.783878 25.783878 0 0 0-25.783878-25.655919H169.345713a26.167757 26.167757 0 0 0-23.416623 14.523425L2.806173 986.88913a25.0801 25.0801 0 0 0 1.151638 24.82418 25.911838 25.911838 0 0 0 21.817127 11.964232h972.301725a25.14408 25.14408 0 0 0 21.433249-11.324433 25.783878 25.783878 0 0 0 1.983375-24.696221l-129.751128-295.394951z" p-id="3595" fill="#176ebd"></path></svg>